<?xml version="1.0" encoding="UTF-8" standalone="no"?>
<!-- Created with Inkscape (http://www.inkscape.org/) -->

<svg
   xmlns:dc="http://purl.org/dc/elements/1.1/"
   xmlns:cc="http://creativecommons.org/ns#"
   xmlns:rdf="http://www.w3.org/1999/02/22-rdf-syntax-ns#"
   xmlns:svg="http://www.w3.org/2000/svg"
   xmlns="http://www.w3.org/2000/svg"
   xmlns:sodipodi="http://sodipodi.sourceforge.net/DTD/sodipodi-0.dtd"
   xmlns:inkscape="http://www.inkscape.org/namespaces/inkscape"
   width="28.222223mm"
   height="28.222221mm"
   viewBox="0 0 100 99.999996"
   id="svg2"
   version="1.1"
   inkscape:version="0.91 r13725"
   sodipodi:docname="crisp.svg"
   inkscape:export-filename="C:\Users\Saul\Desktop\icon.png"
   inkscape:export-xdpi="230.39999"
   inkscape:export-ydpi="230.39999">
  <defs
     id="defs4" />
  <sodipodi:namedview
     id="base"
     pagecolor="#ffffff"
     bordercolor="#666666"
     borderopacity="1.0"
     inkscape:pageopacity="0.0"
     inkscape:pageshadow="2"
     inkscape:zoom="5.6"
     inkscape:cx="51.19259"
     inkscape:cy="52.291997"
     inkscape:document-units="px"
     inkscape:current-layer="g2992"
     showgrid="false"
     fit-margin-top="0"
     fit-margin-left="0"
     fit-margin-right="0"
     fit-margin-bottom="0"
     inkscape:window-width="1920"
     inkscape:window-height="1017"
     inkscape:window-x="-8"
     inkscape:window-y="-8"
     inkscape:window-maximized="1" />
  <metadata
     id="metadata7">
    <rdf:RDF>
      <cc:Work
         rdf:about="">
        <dc:format>image/svg+xml</dc:format>
        <dc:type
           rdf:resource="http://purl.org/dc/dcmitype/StillImage" />
        <dc:title />
      </cc:Work>
    </rdf:RDF>
  </metadata>
  <g
     inkscape:label="Layer 1"
     inkscape:groupmode="layer"
     id="layer1"
     transform="translate(-71.728499,-610.96594)">
    <g
       transform="matrix(4.3256721,0,0,4.3256721,-943.05928,-1187.8596)"
       id="layer1-4"
       inkscape:label="Layer 1">
      <g
         transform="matrix(0.97402597,0,0,0.97402597,-1459.9999,77.206088)"
         id="g2992">
        <text
           xml:space="preserve"
           style="font-style:normal;font-weight:normal;font-size:12px;font-family:Lello;fill:#ffffff;fill-opacity:1;stroke:none;"
           x="-471.24011"
           y="-946.41162"
           id="text2171"><tspan
             sodipodi:role="line"
             id="tspan2173"
             x="-471.24011"
             y="-946.41162" /></text>
        <ellipse
           style="fill:#ffffff;fill-rule:evenodd;stroke:none;stroke-width:0.04286594px;stroke-linecap:butt;stroke-linejoin:miter;stroke-opacity:1"
           id="path3366"
           cx="1751.6528"
           cy="359.70981"
           rx="10.042879"
           ry="10.042878" />
        <path
           inkscape:export-ydpi="230.3997"
           inkscape:export-xdpi="230.3997"
           inkscape:export-filename="C:\Users\Saul\Documents\WebstormProjects\crisp\favicon.png"
           inkscape:connector-curvature="0"
           id="path2999"
           d="m 1751.6541,347.67318 c -6.5544,0 -11.8684,5.31143 -11.8684,11.86586 0,6.55444 5.314,11.86841 11.8684,11.86841 6.5544,0 11.8659,-5.31397 11.8659,-11.86841 0,-6.55443 -5.3115,-11.86586 -11.8659,-11.86586 z m -2.6235,4.2247 c 0.3839,1e-5 0.7464,0.15785 1.0912,0.47422 0.3448,0.3164 0.6451,0.85727 0.8975,1.62155 0.2524,0.76432 0.6446,2.34938 1.1779,4.75247 l 0.7572,3.38077 c 0.3057,1.40063 0.6261,2.33687 0.9638,2.80967 0.3377,0.4728 0.7418,0.70879 1.211,0.70879 0.7963,0 1.2472,-0.56195 1.3539,-1.68529 l 0.385,0 c 0,1.12334 -0.1821,1.94082 -0.5482,2.45272 -0.3662,0.5119 -0.8243,0.76743 -1.3717,0.76743 -0.4479,0 -0.8777,-0.16711 -1.2901,-0.50482 -0.4124,-0.33772 -0.782,-1.24361 -1.1091,-2.71533 l -0.9178,-4.13801 -3.1768,7.21028 -2.0168,0 4.5638,-9.83382 c -0.2417,-1.27264 -0.5332,-2.21351 -0.8745,-2.82496 -0.3413,-0.61143 -0.7624,-0.91785 -1.2672,-0.91786 -0.4052,10e-6 -0.761,0.15476 -1.0631,0.46402 -0.3022,0.30929 -0.4693,0.78846 -0.5049,1.43543 l -0.3849,0 c 0.021,-1.04512 0.2316,-1.88468 0.6297,-2.51391 0.3982,-0.6292 0.8968,-0.94334 1.4941,-0.94335 z"
           style="fill:#6f275e;fill-opacity:1" />
        <g
           id="text3011"
           style="font-style:normal;font-weight:normal;font-size:40px;line-height:125%;font-family:Sans;letter-spacing:0px;word-spacing:0px;fill:#ffffff;fill-opacity:1;stroke:none"
           transform="matrix(1.0266667,0,0,1.0266667,1673.57,104.21208)" />
      </g>
    </g>
  </g>
</svg>
