<?xml version="1.0" encoding="UTF-8" standalone="no"?>
<!-- Created with Inkscape (http://www.inkscape.org/) -->

<svg
   xmlns:dc="http://purl.org/dc/elements/1.1/"
   xmlns:cc="http://creativecommons.org/ns#"
   xmlns:rdf="http://www.w3.org/1999/02/22-rdf-syntax-ns#"
   xmlns:svg="http://www.w3.org/2000/svg"
   xmlns="http://www.w3.org/2000/svg"
   xmlns:sodipodi="http://sodipodi.sourceforge.net/DTD/sodipodi-0.dtd"
   xmlns:inkscape="http://www.inkscape.org/namespaces/inkscape"
   width="28.222223mm"
   height="28.222221mm"
   viewBox="0 0 100 99.999996"
   id="svg2"
   version="1.1"
   inkscape:version="0.91 r13725"
   sodipodi:docname="packet.svg"
   inkscape:export-filename="C:\Users\Saul\Desktop\icon.png"
   inkscape:export-xdpi="230.39999"
   inkscape:export-ydpi="230.39999">
  <defs
     id="defs4" />
  <sodipodi:namedview
     id="base"
     pagecolor="#ffffff"
     bordercolor="#666666"
     borderopacity="1.0"
     inkscape:pageopacity="0.0"
     inkscape:pageshadow="2"
     inkscape:zoom="5.6"
     inkscape:cx="51.19259"
     inkscape:cy="55.19844"
     inkscape:document-units="px"
     inkscape:current-layer="g2992"
     showgrid="false"
     fit-margin-top="0"
     fit-margin-left="0"
     fit-margin-right="0"
     fit-margin-bottom="0"
     inkscape:window-width="1920"
     inkscape:window-height="1017"
     inkscape:window-x="-8"
     inkscape:window-y="-8"
     inkscape:window-maximized="1" />
  <metadata
     id="metadata7">
    <rdf:RDF>
      <cc:Work
         rdf:about="">
        <dc:format>image/svg+xml</dc:format>
        <dc:type
           rdf:resource="http://purl.org/dc/dcmitype/StillImage" />
        <dc:title></dc:title>
      </cc:Work>
    </rdf:RDF>
  </metadata>
  <g
     inkscape:label="Layer 1"
     inkscape:groupmode="layer"
     id="layer1"
     transform="translate(-71.728499,-610.96594)">
    <g
       transform="matrix(4.3256721,0,0,4.3256721,-943.05928,-1187.8596)"
       id="layer1-4"
       inkscape:label="Layer 1">
      <g
         transform="matrix(0.97402597,0,0,0.97402597,-1459.9999,77.206088)"
         id="g2992">
        <text
           xml:space="preserve"
           style="font-style:normal;font-weight:normal;font-size:12px;font-family:Lello;fill:#ffffff;fill-opacity:1;stroke:none;"
           x="-471.24011"
           y="-946.41162"
           id="text2171"><tspan
             sodipodi:role="line"
             id="tspan2173"
             x="-471.24011"
             y="-946.41162" /></text>
        <ellipse
           style="fill:#ffffff;fill-rule:evenodd;stroke:none;stroke-width:0.04286594px;stroke-linecap:butt;stroke-linejoin:miter;stroke-opacity:1"
           id="path3366"
           cx="1751.6528"
           cy="359.70981"
           rx="10.042879"
           ry="10.042878" />
        <path
           style="fill:#2c5aa0;fill-opacity:1"
           d="M 50.005859 0 C 22.390096 0 9.4739031e-015 22.37825 0 49.994141 C 0 77.610073 22.390096 100 50.005859 100 C 77.621624 100 100 77.610073 100 49.994141 C 100 22.37825 77.621624 4.7369516e-015 50.005859 0 z M 50 12.722656 C 53.933553 12.722277 57.866652 14.228107 60.880859 17.242188 L 61.927734 18.287109 L 55.212891 25.001953 C 51.083419 22.735062 45.816869 23.347151 42.310547 26.853516 L 26.853516 42.310547 C 23.346772 45.816954 22.734346 51.083629 25.001953 55.212891 L 18.287109 61.927734 L 17.242188 60.880859 C 11.214195 54.852783 11.216569 45.147007 17.244141 39.119141 L 39.119141 17.244141 C 42.132926 14.230229 46.066026 12.723035 50 12.722656 z M 50 28.505859 C 52.267976 28.505633 54.535444 29.375435 56.273438 31.113281 L 68.888672 43.726562 C 72.364237 47.202128 72.361863 52.797872 68.886719 56.273438 L 56.273438 68.886719 C 52.797872 72.362284 47.202128 72.362284 43.726562 68.886719 L 31.113281 56.273438 C 27.637716 52.797704 27.638137 47.202128 31.113281 43.726562 L 43.726562 31.113281 C 45.464345 29.375499 47.732024 28.506086 50 28.505859 z M 50 34.8125 C 48.397254 34.812505 46.794377 35.426389 45.566406 36.654297 L 36.654297 45.566406 C 34.198354 48.022222 34.198776 51.977778 36.654297 54.433594 L 45.566406 63.345703 C 48.021927 65.801351 51.976119 65.801519 54.431641 63.345703 L 63.34375 54.433594 C 65.799692 51.977778 65.801646 48.022096 63.345703 45.566406 L 54.433594 36.654297 C 53.205623 35.426368 51.602746 34.812495 50 34.8125 z M 81.712891 38.072266 L 82.757812 39.119141 C 88.785384 45.146923 88.783431 54.853077 82.755859 60.880859 L 60.880859 82.755859 C 54.853288 88.783683 45.147133 88.785594 39.119141 82.757812 L 38.072266 81.712891 L 44.787109 74.998047 C 48.91616 77.265275 54.180756 76.653102 57.6875 73.146484 L 73.144531 57.689453 C 76.651275 54.182752 77.264811 48.916371 74.998047 44.787109 L 81.712891 38.072266 z "
           transform="matrix(0.23734269,0,0,0.23734269,1739.7857,347.67318)"
           id="path2999" />
        <g
           id="text3011"
           style="font-style:normal;font-weight:normal;font-size:40px;line-height:125%;font-family:Sans;letter-spacing:0px;word-spacing:0px;fill:#ffffff;fill-opacity:1;stroke:none"
           transform="matrix(1.0266667,0,0,1.0266667,1673.57,104.21208)" />
      </g>
    </g>
  </g>
</svg>
