<?xml version="1.0" encoding="UTF-8" standalone="no"?>
<!-- Created with Inkscape (http://www.inkscape.org/) -->

<svg
   xmlns:dc="http://purl.org/dc/elements/1.1/"
   xmlns:cc="http://creativecommons.org/ns#"
   xmlns:rdf="http://www.w3.org/1999/02/22-rdf-syntax-ns#"
   xmlns:svg="http://www.w3.org/2000/svg"
   xmlns="http://www.w3.org/2000/svg"
   xmlns:sodipodi="http://sodipodi.sourceforge.net/DTD/sodipodi-0.dtd"
   xmlns:inkscape="http://www.inkscape.org/namespaces/inkscape"
   width="28.56251mm"
   height="37.726246mm"
   viewBox="0 0 101.20574 133.67567"
   id="svg2"
   version="1.1"
   inkscape:version="0.91 r13725"
   sodipodi:docname="logo_packet.svg"
   inkscape:export-filename="C:\Users\Saul\Desktop\icon.png"
   inkscape:export-xdpi="230.39999"
   inkscape:export-ydpi="230.39999">
  <defs
     id="defs4" />
  <sodipodi:namedview
     id="base"
     pagecolor="#ffffff"
     bordercolor="#666666"
     borderopacity="1.0"
     inkscape:pageopacity="0.0"
     inkscape:pageshadow="2"
     inkscape:zoom="5.6"
     inkscape:cx="25.098946"
     inkscape:cy="60.302679"
     inkscape:document-units="px"
     inkscape:current-layer="g2992"
     showgrid="false"
     fit-margin-top="0"
     fit-margin-left="0"
     fit-margin-right="0"
     fit-margin-bottom="0"
     inkscape:window-width="1920"
     inkscape:window-height="1017"
     inkscape:window-x="-8"
     inkscape:window-y="-8"
     inkscape:window-maximized="1" />
  <metadata
     id="metadata7">
    <rdf:RDF>
      <cc:Work
         rdf:about="">
        <dc:format>image/svg+xml</dc:format>
        <dc:type
           rdf:resource="http://purl.org/dc/dcmitype/StillImage" />
        <dc:title></dc:title>
      </cc:Work>
    </rdf:RDF>
  </metadata>
  <g
     inkscape:label="Layer 1"
     inkscape:groupmode="layer"
     id="layer1"
     transform="translate(-71.125714,-610.96593)">
    <g
       transform="matrix(4.3256721,0,0,4.3256721,-943.05928,-1187.8596)"
       id="layer1-4"
       inkscape:label="Layer 1">
      <g
         transform="matrix(0.97402597,0,0,0.97402597,-1459.9999,77.206088)"
         id="g2992">
        <text
           xml:space="preserve"
           style="font-style:normal;font-weight:normal;font-size:12px;font-family:Lello;fill:#ffffff;fill-opacity:1;stroke:none"
           x="-471.24011"
           y="-946.41162"
           id="text2171"><tspan
             sodipodi:role="line"
             id="tspan2173"
             x="-471.24011"
             y="-946.41162" /></text>
        <ellipse
           style="fill:#ffffff;fill-rule:evenodd;stroke:none;stroke-width:0.04286594px;stroke-linecap:butt;stroke-linejoin:miter;stroke-opacity:1"
           id="path3366"
           cx="1751.6528"
           cy="359.70981"
           rx="10.042879"
           ry="10.042878" />
        <path
           style="fill:#2c5aa0;fill-opacity:1"
           d="m 1751.6542,347.67318 c -6.5544,0 -11.8685,5.31131 -11.8685,11.86574 0,6.55444 5.3141,11.86853 11.8685,11.86853 6.5544,0 11.8658,-5.31409 11.8658,-11.86853 0,-6.55443 -5.3114,-11.86574 -11.8658,-11.86574 z m 0,3.01963 c 0.9336,-9e-5 1.8671,0.35731 2.5825,1.07268 l 0.2485,0.248 -1.5937,1.59372 c -0.9801,-0.53803 -2.2301,-0.39275 -3.0623,0.43946 l -3.6686,3.66861 c -0.8323,0.83222 -0.9777,2.08223 -0.4395,3.06228 l -1.5937,1.59371 -0.248,-0.24846 c -1.4307,-1.43072 -1.4301,-3.73432 5e-4,-5.16499 l 5.1918,-5.19187 c 0.7153,-0.71533 1.6488,-1.07305 2.5825,-1.07314 z m 0,3.74603 c 0.5383,-6e-5 1.0765,0.20638 1.489,0.61885 l 2.9941,2.99367 c 0.8249,0.8249 0.8244,2.15301 -4e-4,2.97791 l -2.9937,2.99367 c -0.8249,0.8249 -2.153,0.8249 -2.9779,0 l -2.9937,-2.99367 c -0.8249,-0.82494 -0.8248,-2.15301 0,-2.97791 l 2.9937,-2.99367 c 0.4124,-0.41245 0.9507,-0.6188 1.4889,-0.61885 z m 0,1.49683 c -0.3804,0 -0.7608,0.1457 -1.0522,0.43714 l -2.1153,2.11522 c -0.5829,0.58287 -0.5828,1.5217 0,2.10457 l 2.1153,2.11522 c 0.5828,0.58283 1.5213,0.58287 2.1041,0 l 2.1152,-2.11522 c 0.5829,-0.58287 0.5833,-1.52173 4e-4,-2.10457 l -2.1152,-2.11522 c -0.2914,-0.29144 -0.6719,-0.43714 -1.0523,-0.43714 z m 7.5269,0.77368 0.248,0.24847 c 1.4306,1.43065 1.4301,3.73434 -5e-4,5.16499 l -5.1919,5.19187 c -1.4306,1.43066 -3.7343,1.43111 -5.165,4.6e-4 l -0.2484,-0.248 1.5937,-1.59372 c 0.98,0.53811 2.2295,0.39281 3.0618,-0.43946 l 3.6686,-3.66861 c 0.8323,-0.83229 0.9779,-2.08223 0.4399,-3.06228 l 1.5938,-1.59372 z"
           id="path2999"
           inkscape:connector-curvature="0" />
        <g
           id="text3011"
           style="font-style:normal;font-weight:normal;font-size:40px;line-height:125%;font-family:Sans;letter-spacing:0px;word-spacing:0px;fill:#ffffff;fill-opacity:1;stroke:none"
           transform="matrix(1.0266667,0,0,1.0266667,1673.57,104.21208)" />
        <path
           inkscape:connector-curvature="0"
           id="path4145"
           style="font-style:normal;font-variant:normal;font-weight:normal;font-stretch:normal;font-size:medium;line-height:125%;font-family:Nickainley;-inkscape-font-specification:Nickainley;letter-spacing:0px;word-spacing:0px;fill:#122541;fill-opacity:1;stroke:none;stroke-width:1px;stroke-linecap:butt;stroke-linejoin:miter;stroke-opacity:1"
           d="m 1746.4232,372.12184 q 0.3038,0.27532 0.4557,0.64558 0.1519,0.36076 0.1519,0.75949 0,0.34178 -0.085,0.69304 -0.038,0.1614 -0.1044,0.33228 -0.057,0.1614 -0.1329,0.32279 -0.1519,0.3038 -0.3608,0.54114 -0.1044,0.11393 -0.2279,0.21836 -0.1139,0.10443 -0.2468,0.18987 -0.4652,0.28481 -0.9778,0.3038 -0.2469,0.019 -0.4937,-0.0285 -0.2469,-0.057 -0.4937,-0.1519 -0.076,-0.0285 -0.1139,-0.10443 -0.038,-0.076 -0.01,-0.1519 0.028,-0.076 0.1044,-0.10443 0.076,-0.038 0.1519,-0.01 0.2184,0.0759 0.4272,0.12342 0.2089,0.038 0.4083,0.0285 0.4082,-0.019 0.7784,-0.24683 0.114,-0.0665 0.2089,-0.14241 0.095,-0.0854 0.1804,-0.18987 0.1899,-0.19937 0.3038,-0.46519 0.076,-0.13292 0.1234,-0.27532 0.047,-0.14241 0.085,-0.28481 0.076,-0.32279 0.076,-0.59811 0,-0.31329 -0.1139,-0.5981 -0.1139,-0.29431 -0.3608,-0.51266 -0.2183,-0.18987 -0.5316,-0.31329 -0.3038,-0.12342 -0.731,-0.13291 -0.2754,-0.019 -0.5222,0.0285 -0.2468,0.038 -0.4652,0.11392 -0.4462,0.1519 -0.807,0.48418 -0.2563,0.23734 -0.4177,0.51266 -0.095,0.14241 -0.1709,0.3038 -0.066,0.16139 -0.1329,0.33228 -0.047,0.13291 -0.076,0.25633 -0.029,0.12342 -0.057,0.25633 -0.019,0.13291 -0.038,0.27532 -0.019,0.1424 -0.028,0.2943 0,0.0475 -0.01,0.0854 0,0.0285 0,0.0665 l 0,0.16139 q 0,0.0759 -0.057,0.14241 -0.057,0.057 -0.1424,0.057 -0.086,0 -0.1424,-0.057 -0.057,-0.0665 -0.057,-0.14241 l 0,-0.17088 q 0,-0.12342 0.01,-0.17089 0.01,-0.16139 0.028,-0.31329 0.019,-0.1519 0.048,-0.29431 0.057,-0.2943 0.1424,-0.56962 0.1424,-0.38924 0.3417,-0.72152 0.2089,-0.34177 0.4842,-0.5981 0.2089,-0.18988 0.4367,-0.33228 0.2374,-0.14241 0.5127,-0.23735 0.5127,-0.18987 1.1297,-0.17088 0.5127,0.019 0.883,0.17088 0.3797,0.14241 0.636,0.38924 z m -1.8512,0.93039 q -0.1899,0.37975 -0.3703,0.93988 -0.1804,0.56012 -0.3607,1.18671 -0.1899,0.64557 -0.3988,1.31013 -0.2088,0.65507 -0.4652,1.22469 -0.2563,0.56013 -0.5791,0.97785 -0.3228,0.41772 -0.731,0.57912 -0.01,0.009 -0.019,0.009 -0.1519,0.0665 -0.3418,0.0949 -0.5221,0.0854 -0.9398,-0.11393 -0.2184,-0.10443 -0.3798,-0.27531 -0.1614,-0.1614 -0.2563,-0.38925 -0.019,-0.057 -0.038,-0.11392 -0.01,-0.057 -0.028,-0.12342 -0.029,-0.18987 -0.019,-0.36076 0.01,-0.17089 0.057,-0.33228 0.057,-0.21836 0.1709,-0.39874 0.1139,-0.18987 0.2563,-0.33228 0.3323,-0.31329 0.7025,-0.37025 0.2469,-0.0475 0.4463,0.019 0.085,0.019 0.1234,0.0949 0.038,0.0665 0.019,0.1519 -0.019,0.076 -0.095,0.12342 -0.076,0.038 -0.1519,0.01 -0.1139,-0.0285 -0.2753,-0.01 -0.1329,0.019 -0.2563,0.0949 -0.1234,0.0664 -0.2279,0.17089 -0.2373,0.21835 -0.3228,0.55063 -0.066,0.23734 -0.028,0.52215 0.01,0.0475 0.019,0.0854 0.01,0.0285 0.028,0.0665 0.1139,0.3038 0.4272,0.4557 0.3038,0.14241 0.7026,0.0854 0.1139,-0.0285 0.2658,-0.0759 l 0.01,-0.01 q 0.3418,-0.13291 0.6171,-0.52215 0.2848,-0.38924 0.5126,-0.92089 0.2374,-0.53165 0.4273,-1.14874 0.1993,-0.62658 0.3797,-1.23418 0.1899,-0.65507 0.3703,-1.22469 0.1898,-0.57912 0.3987,-0.97785 0.076,-0.14241 0.1709,-0.25633 0.095,-0.12342 0.1994,-0.21836 0.2278,-0.19937 0.4936,-0.24683 0.076,-0.019 0.1424,0.038 0.066,0.0475 0.085,0.12342 0.019,0.0854 -0.038,0.1519 -0.047,0.0665 -0.1234,0.0854 -0.1329,0.01 -0.3038,0.1519 -0.1519,0.14241 -0.2753,0.35127 z" />
        <path
           inkscape:connector-curvature="0"
           id="path4147"
           style="font-style:normal;font-variant:normal;font-weight:normal;font-stretch:normal;font-size:medium;line-height:125%;font-family:Nickainley;-inkscape-font-specification:Nickainley;letter-spacing:0px;word-spacing:0px;fill:#122541;fill-opacity:1;stroke:none;stroke-width:1px;stroke-linecap:butt;stroke-linejoin:miter;stroke-opacity:1"
           d="m 1750.8513,376.5649 q 0.076,0.038 0.1044,0.11392 0.038,0.0759 0,0.1519 l -0.01,0.0285 q -0.1329,0.3038 -0.3037,0.64558 -0.1614,0.34177 -0.3798,0.63608 -0.2089,0.2943 -0.4652,0.49367 -0.2563,0.18987 -0.5791,0.18987 l -0.01,0 q -0.1899,0 -0.3228,-0.076 -0.1329,-0.0759 -0.2183,-0.19937 -0.076,-0.11392 -0.1045,-0.24683 -0.029,-0.13291 -0.029,-0.27532 l 0,-0.009 q -0.2468,0.35126 -0.5506,0.57911 -0.2943,0.21836 -0.6551,0.20886 -0.3987,-0.009 -0.5886,-0.32278 -0.1044,-0.14241 -0.1424,-0.33228 -0.038,-0.19937 -0.028,-0.42722 0,-0.19937 0.057,-0.48418 0.057,-0.28481 0.1519,-0.60759 0.095,-0.32279 0.2374,-0.65507 0.1424,-0.33228 0.3132,-0.62658 0.2659,-0.43672 0.5982,-0.73102 0.3322,-0.29431 0.7405,-0.3038 l 0.085,0 q 0.1899,0.019 0.3513,0.10443 0.1709,0.0854 0.3038,0.22785 0.066,0.0854 0.1234,0.18988 0.047,-0.12342 0.085,-0.22785 0.038,-0.10443 0.076,-0.19937 0.029,-0.0759 0.1044,-0.10443 0.076,-0.038 0.1519,-0.01 0.076,0.0285 0.1044,0.10443 0.038,0.076 0.01,0.1519 -0.076,0.20887 -0.2088,0.55064 -0.1234,0.33228 -0.2659,0.72152 -0.095,0.26582 -0.1898,0.51266 -0.085,0.24684 -0.1519,0.44621 -0.1519,0.41772 -0.2184,0.72152 -0.047,0.16139 -0.076,0.28481 -0.019,0.12342 -0.019,0.21835 l 0,0.019 q 0,0.0854 0.01,0.17089 0.019,0.076 0.057,0.13291 0.066,0.0949 0.2184,0.0949 0.2184,0 0.4082,-0.17089 0.1994,-0.17089 0.3703,-0.42722 0.1709,-0.25633 0.3133,-0.56013 0.1519,-0.30379 0.2658,-0.56962 l 0.01,-0.0285 q 0.038,-0.0759 0.1139,-0.10443 0.076,-0.038 0.1519,0 z m -3.5127,1.84178 q 0.2849,0.009 0.5317,-0.21836 0.2563,-0.23734 0.4652,-0.58861 0.2183,-0.36076 0.3892,-0.77848 0.1804,-0.42722 0.3228,-0.78798 0.067,-0.1519 0.1139,-0.28481 0.057,-0.1424 0.1045,-0.25633 0.01,-0.0285 0.01,-0.0665 -0.019,-0.34177 -0.1709,-0.51266 -0.1614,-0.17088 -0.3798,-0.18987 -0.019,-0.009 -0.057,-0.009 -0.2754,0.009 -0.5317,0.24683 -0.2468,0.23735 -0.4652,0.59811 -0.1614,0.27531 -0.2943,0.57911 -0.1234,0.3038 -0.2183,0.59811 -0.086,0.2943 -0.1424,0.56013 -0.048,0.25633 -0.048,0.43671 0,0.36076 0.1044,0.53164 0.086,0.13292 0.2658,0.14241 z" />
        <path
           inkscape:connector-curvature="0"
           id="path4149"
           style="font-style:normal;font-variant:normal;font-weight:normal;font-stretch:normal;font-size:medium;line-height:125%;font-family:Nickainley;-inkscape-font-specification:Nickainley;letter-spacing:0px;word-spacing:0px;fill:#122541;fill-opacity:1;stroke:none;stroke-width:1px;stroke-linecap:butt;stroke-linejoin:miter;stroke-opacity:1"
           d="m 1754.3293,376.5649 q 0.076,0.038 0.1044,0.11392 0.028,0.0759 0,0.1519 -0.2753,0.6076 -0.5981,0.99684 -0.3228,0.37975 -0.6835,0.6076 -0.3608,0.22785 -0.7311,0.31329 -0.3702,0.0855 -0.731,0.0665 l -0.019,0 -0.01,0 q -0.2563,-0.019 -0.4841,-0.0949 -0.2184,-0.0759 -0.3798,-0.23734 -0.1709,-0.16139 -0.2658,-0.39874 -0.095,-0.23734 -0.085,-0.56013 l 0,-0.019 0,-0.01 q 0.019,-0.33228 0.114,-0.69304 0.1044,-0.37025 0.2658,-0.73101 0.1614,-0.37026 0.3702,-0.70254 0.2184,-0.33228 0.4463,-0.57911 0.2183,-0.21836 0.4651,-0.33228 0.2469,-0.13292 0.4937,-0.13292 l 0.01,0 0.029,0 0.01,0 q 0.1614,0.01 0.3038,0.0759 0.1424,0.057 0.2468,0.18039 0.2089,0.23734 0.2089,0.64557 l 0,0.057 q 0,0.18038 -0.076,0.37975 -0.028,0.0949 -0.076,0.18038 -0.047,0.0854 -0.1044,0.17088 -0.047,0.0665 -0.133,0.0855 -0.076,0.009 -0.1519,-0.038 -0.066,-0.0475 -0.085,-0.12341 -0.01,-0.0855 0.038,-0.1614 0.085,-0.0949 0.1329,-0.24683 0.057,-0.12342 0.057,-0.26583 l 0,-0.038 q 0,-0.26583 -0.1139,-0.37975 -0.095,-0.10443 -0.2658,-0.12342 l -0.028,0 q -0.076,0 -0.1614,0.0285 -0.076,0.019 -0.1614,0.057 -0.085,0.0475 -0.1803,0.11393 -0.086,0.0665 -0.1614,0.1519 -0.2089,0.21835 -0.4083,0.52215 -0.1898,0.3038 -0.3417,0.63608 -0.1424,0.33228 -0.2374,0.66456 -0.085,0.32279 -0.1044,0.61709 l 0,0.019 q -0.01,0.4462 0.2278,0.65506 0.1045,0.10443 0.2564,0.1614 0.1614,0.057 0.3512,0.0665 l 0.019,0 q 0.3038,0.01 0.6171,-0.057 0.3228,-0.076 0.6266,-0.26582 0.3038,-0.18988 0.5886,-0.53165 0.2943,-0.35127 0.5316,-0.89241 0.038,-0.0759 0.114,-0.10443 0.076,-0.0285 0.1519,0 z" />
        <path
           inkscape:connector-curvature="0"
           id="path4151"
           style="font-style:normal;font-variant:normal;font-weight:normal;font-stretch:normal;font-size:medium;line-height:125%;font-family:Nickainley;-inkscape-font-specification:Nickainley;letter-spacing:0px;word-spacing:0px;fill:#122541;fill-opacity:1;stroke:none;stroke-width:1px;stroke-linecap:butt;stroke-linejoin:miter;stroke-opacity:1"
           d="m 1755.1475,374.93198 q -0.038,0.10443 -0.1139,0.29431 -0.066,0.18987 -0.1614,0.4462 -0.085,0.24684 -0.1994,0.55064 -0.1044,0.2943 -0.2183,0.5981 -0.1045,0.27532 -0.2089,0.56013 -0.095,0.27532 -0.1804,0.53165 -0.085,0.24683 -0.1614,0.4462 -0.076,0.19937 -0.1139,0.32279 -0.028,0.0854 -0.1044,0.12341 -0.076,0.0285 -0.1519,0.01 -0.076,-0.0285 -0.1139,-0.10443 -0.038,-0.076 -0.01,-0.1519 0.038,-0.11393 0.1139,-0.3038 0.066,-0.19937 0.1614,-0.4462 0.085,-0.25633 0.1899,-0.54115 0.095,-0.2943 0.1993,-0.57911 l 0.01,-0.01 q 0.1044,-0.2943 0.2089,-0.58861 0.1044,-0.2943 0.1993,-0.55063 0.095,-0.25633 0.1614,-0.4462 0.076,-0.19937 0.1235,-0.3038 l 0,-0.01 q 0.076,-0.20886 0.1044,-0.31329 0.038,-0.10443 0.076,-0.18987 0.057,-0.17089 0.1045,-0.3133 0.057,-0.1519 0.085,-0.24683 l 0.057,-0.1614 q 0.047,-0.12341 0.1044,-0.2943 0.057,-0.17089 0.1329,-0.38924 0.028,-0.0759 0.1044,-0.10443 0.076,-0.038 0.1519,-0.01 0.076,0.0285 0.114,0.10443 0.038,0.076 0.01,0.1519 -0.066,0.18038 -0.1329,0.36076 -0.057,0.17089 -0.1045,0.3038 -0.019,0.0475 -0.028,0.0854 -0.01,0.038 -0.028,0.0854 -0.1235,0.37025 -0.1994,0.56013 l -0.1709,0.50316 -0.01,0.019 z m 2.962,1.63292 q 0.076,0.0285 0.1045,0.11392 0.029,0.0759 0,0.1519 -0.1329,0.28481 -0.2943,0.61709 -0.1519,0.33228 -0.3608,0.62659 -0.2183,0.32279 -0.4937,0.54114 -0.2658,0.20886 -0.5981,0.20886 -0.1614,0 -0.2848,-0.0475 -0.1139,-0.057 -0.2088,-0.1519 -0.095,-0.10443 -0.1424,-0.23734 -0.048,-0.1424 -0.067,-0.27532 l 0,-0.009 q 0,-0.1519 0.019,-0.31329 0.019,-0.16139 0.038,-0.32279 0.019,-0.1424 0.028,-0.28481 0.019,-0.1424 0.019,-0.27532 -0.01,-0.18987 -0.095,-0.3038 -0.076,-0.12341 -0.3228,-0.12341 -0.085,0 -0.2183,0.0664 -0.019,0.01 -0.047,0.0285 -0.029,0.01 -0.048,0.0285 l -0.1329,0.12342 q -0.076,0.057 -0.1614,0.0475 l -0.019,0 q 0,-0.009 -0.019,-0.009 0,0 -0.01,-0.01 l -0.01,0 q 0,0 -0.01,-0.009 -0.038,-0.019 -0.057,-0.038 -0.047,-0.057 -0.047,-0.13292 0,-0.0854 0.047,-0.1424 0.038,-0.0285 0.076,-0.057 0.038,-0.038 0.085,-0.0759 l 2.1171,-1.93672 q 0.066,-0.057 0.1424,-0.0475 0.085,0 0.1424,0.0665 0.057,0.057 0.048,0.1424 0,0.0854 -0.057,0.13291 l -1.5854,1.44305 q 0.3322,0.057 0.4462,0.28481 0.1234,0.21835 0.1329,0.52215 0,0.14241 -0.019,0.3038 -0.019,0.1519 -0.038,0.31329 -0.019,0.1519 -0.038,0.29431 -0.01,0.13291 -0.01,0.25633 l 0.01,0 q 0,0.16139 0.095,0.27532 0.076,0.076 0.1993,0.076 0.2184,0 0.4083,-0.1614 0.1898,-0.16139 0.3512,-0.40823 0.1899,-0.27531 0.3418,-0.58861 0.1519,-0.32278 0.2753,-0.5981 0.038,-0.0759 0.1139,-0.10443 0.076,-0.038 0.1519,0 z" />
        <path
           inkscape:connector-curvature="0"
           id="path4153"
           style="font-style:normal;font-variant:normal;font-weight:normal;font-stretch:normal;font-size:medium;line-height:125%;font-family:Nickainley;-inkscape-font-specification:Nickainley;letter-spacing:0px;word-spacing:0px;fill:#122541;fill-opacity:1;stroke:none;stroke-width:1px;stroke-linecap:butt;stroke-linejoin:miter;stroke-opacity:1"
           d="m 1761.5694,376.5649 q 0.076,0.038 0.1044,0.11392 0.028,0.0759 0,0.1519 -0.2753,0.6076 -0.5981,0.99684 -0.3227,0.37975 -0.6835,0.6076 -0.3608,0.22785 -0.731,0.31329 -0.3703,0.0855 -0.731,0.0665 l -0.019,0 -0.01,0 q -0.2564,-0.019 -0.4842,-0.0949 -0.2184,-0.0759 -0.3797,-0.23734 -0.1709,-0.16139 -0.2659,-0.39874 -0.095,-0.23734 -0.085,-0.56013 l 0,-0.019 0,-0.01 q 0.01,-0.18987 0.047,-0.38924 0.038,-0.19937 0.095,-0.40823 0,-0.009 0,-0.009 0.01,0 0.01,-0.01 0.095,-0.32278 0.2278,-0.60759 0.1614,-0.37026 0.3703,-0.70254 0.2183,-0.33228 0.4462,-0.57911 0.2183,-0.21836 0.4652,-0.33228 0.2468,-0.13292 0.5031,-0.13292 0.3228,0 0.5127,0.14241 0.2089,0.13291 0.2753,0.39874 0.029,0.10443 0.019,0.22785 -0.01,0.12341 -0.047,0.24683 -0.057,0.18988 -0.1803,0.37026 -0.114,0.17088 -0.2754,0.30379 -0.1898,0.1614 -0.4177,0.28482 -0.2183,0.12341 -0.4557,0.22785 -0.3323,0.1424 -0.6266,0.23734 -0.2943,0.0949 -0.4651,0.1424 -0.047,0.1614 -0.076,0.3133 -0.019,0.1519 -0.029,0.2943 l 0,0.019 q -0.01,0.4462 0.2279,0.65506 0.1044,0.10443 0.2563,0.1614 0.1614,0.057 0.3513,0.0665 l 0.019,0 q 0.3038,0.01 0.617,-0.057 0.3228,-0.076 0.6266,-0.26582 0.3038,-0.18988 0.5886,-0.53165 0.2943,-0.35127 0.5317,-0.89241 0.038,-0.0759 0.1139,-0.10443 0.076,-0.0285 0.1519,0 z m -3.1424,-0.33228 q -0.019,0.057 -0.047,0.11392 -0.019,0.0475 -0.038,0.10444 0.1613,-0.0475 0.3607,-0.11393 0.1994,-0.076 0.4177,-0.18038 0.2089,-0.0949 0.4083,-0.20886 0.2088,-0.11393 0.3702,-0.24684 0.2469,-0.19937 0.3323,-0.48418 0.047,-0.1519 0.019,-0.26582 -0.029,-0.10443 -0.1044,-0.1519 -0.1045,-0.076 -0.2944,-0.076 -0.1613,0 -0.3322,0.0854 -0.086,0.0475 -0.1804,0.11393 -0.086,0.0665 -0.1614,0.1519 -0.2089,0.21835 -0.4082,0.52215 -0.1899,0.3038 -0.3418,0.63608 z" />
        <path
           inkscape:connector-curvature="0"
           id="path4155"
           style="font-style:normal;font-variant:normal;font-weight:normal;font-stretch:normal;font-size:medium;line-height:125%;font-family:Nickainley;-inkscape-font-specification:Nickainley;letter-spacing:0px;word-spacing:0px;fill:#122541;fill-opacity:1;stroke:none;stroke-width:1px;stroke-linecap:butt;stroke-linejoin:miter;stroke-opacity:1"
           d="m 1763.5468,376.5649 q 0.076,0.038 0.1044,0.11392 0.028,0.0759 -0.01,0.1519 -0.1519,0.32279 -0.2943,0.58861 -0.1424,0.26583 -0.2848,0.48418 -0.2943,0.44621 -0.6171,0.68355 -0.1709,0.11392 -0.3608,0.17089 -0.1898,0.0665 -0.3987,0.0665 l -0.01,0 q -0.1424,0 -0.2753,-0.0475 -0.1234,-0.057 -0.2184,-0.16139 -0.1993,-0.21835 -0.1993,-0.58861 l 0,-0.009 0,-0.019 q 0,-0.21836 0.1044,-0.58861 0.048,-0.17089 0.095,-0.36076 0.057,-0.18988 0.133,-0.38924 0.019,-0.076 0.076,-0.21836 0.057,-0.1519 0.1329,-0.37025 0.076,-0.21836 0.1614,-0.4557 0.085,-0.23734 0.1804,-0.48418 0.01,-0.038 0.047,-0.14241 0.038,-0.11392 0.095,-0.27531 l -0.5981,0 q -0.085,0 -0.1424,-0.057 -0.057,-0.057 -0.057,-0.1424 0,-0.0759 0.057,-0.13291 0.057,-0.0665 0.1424,-0.0665 l 0.731,0 q 0.019,-0.0475 0.038,-0.10443 0.019,-0.057 0.038,-0.10443 0.066,-0.19937 0.1329,-0.38924 0.066,-0.19937 0.1234,-0.36076 0.057,-0.17089 0.095,-0.28481 0.048,-0.12342 0.067,-0.17089 0.028,-0.0759 0.1044,-0.11393 0.076,-0.038 0.1519,-0.009 0.076,0.0285 0.1139,0.10443 0.038,0.0759 0.01,0.1519 -0.019,0.0475 -0.066,0.17089 -0.038,0.11392 -0.095,0.27531 -0.057,0.1614 -0.1234,0.36077 -0.066,0.19936 -0.1329,0.39873 -0.01,0.019 -0.019,0.038 0,0.019 -0.01,0.038 l 0.6361,0 q 0.085,0 0.1424,0.0665 0.057,0.057 0.057,0.13291 0,0.0854 -0.057,0.1424 -0.057,0.057 -0.1424,0.057 l -0.7785,0 q -0.066,0.19936 -0.1234,0.34177 -0.048,0.14241 -0.067,0.20886 -0.1044,0.28481 -0.1898,0.53165 -0.086,0.23734 -0.1519,0.41772 -0.066,0.18038 -0.114,0.32279 -0.047,0.1424 -0.085,0.24684 -0.076,0.19936 -0.1329,0.37974 -0.047,0.18038 -0.095,0.34178 -0.038,0.16139 -0.066,0.28481 -0.019,0.12342 -0.019,0.21835 l 0,0.019 q 0,0.21836 0.095,0.31329 0.066,0.0855 0.1994,0.0855 l 0.01,0 q 0.1139,0 0.2753,-0.0475 0.1424,-0.0475 0.2564,-0.12342 0.1329,-0.0949 0.2563,-0.23734 0.1234,-0.14241 0.2563,-0.33228 0.1329,-0.19937 0.2658,-0.4557 0.1329,-0.25633 0.2754,-0.56962 0.038,-0.076 0.1139,-0.10443 0.085,-0.0285 0.1614,0.009 z" />
      </g>
    </g>
  </g>
</svg>
